<?xml version="1.0" encoding="UTF-8"?>
<!DOCTYPE svg PUBLIC "-//W3C//DTD SVG 1.1//EN" "http://www.w3.org/Graphics/SVG/1.1/DTD/svg11.dtd">
<svg xmlns="http://www.w3.org/2000/svg" version="1.1" width="121px" height="121px" style="shape-rendering:geometricPrecision; text-rendering:geometricPrecision; image-rendering:optimizeQuality; fill-rule:evenodd; clip-rule:evenodd" xmlns:xlink="http://www.w3.org/1999/xlink">
<g><path style="opacity:1" fill="#040404" d="M 48.5,10.5 C 59.0391,7.35699 64.2057,11.0237 64,21.5C 60.3724,24.2949 58.8724,27.9615 59.5,32.5C 68.5062,32.3336 77.5062,32.5002 86.5,33C 87.4845,42.0828 87.8178,51.2494 87.5,60.5C 92.0385,61.1276 95.7051,59.6276 98.5,56C 109.134,55.8028 112.634,60.9694 109,71.5C 103.683,76.9219 98.5162,76.7552 93.5,71C 91.5273,70.5045 89.5273,70.3379 87.5,70.5C 87.5,79.8333 87.5,89.1667 87.5,98.5C 77.8333,98.5 68.1667,98.5 58.5,98.5C 57.3862,93.107 58.8862,88.7736 63,85.5C 64.5068,79.1718 62.0068,76.5051 55.5,77.5C 48.9932,76.5051 46.4932,79.1718 48,85.5C 51.7228,88.9526 53.2228,93.286 52.5,98.5C 42.4944,98.6665 32.4944,98.4998 22.5,98C 21.5144,88.2496 21.181,78.4163 21.5,68.5C 26.893,67.3862 31.2264,68.8862 34.5,73C 40.6891,74.3101 43.6891,71.8101 43.5,65.5C 43.6891,59.1899 40.6891,56.6899 34.5,58C 31.0474,61.7228 26.714,63.2228 21.5,62.5C 21.3335,52.8276 21.5002,43.1609 22,33.5C 31.0828,32.5155 40.2494,32.1822 49.5,32.5C 50.1276,27.9615 48.6276,24.2949 45,21.5C 44.8333,20.5 44.6667,19.5 44.5,18.5C 45.2932,15.5803 46.6265,12.9137 48.5,10.5 Z"/></g>
<g><path style="opacity:1" fill="#fefffe" d="M 48.5,12.5 C 52.5546,12.1758 56.5546,12.5091 60.5,13.5C 63.6424,18.3091 62.8091,22.3091 58,25.5C 57.502,28.4816 57.3354,31.4816 57.5,34.5C 66.8333,34.5 76.1667,34.5 85.5,34.5C 85.5,43.8333 85.5,53.1667 85.5,62.5C 90.714,63.2228 95.0474,61.7228 98.5,58C 104.689,56.6899 107.689,59.1899 107.5,65.5C 107.689,71.8101 104.689,74.3101 98.5,73C 95.2264,68.8862 90.893,67.3862 85.5,68.5C 85.1822,77.7506 85.5155,86.9172 86.5,96C 77.8397,96.4998 69.1731,96.6664 60.5,96.5C 59.8724,91.9615 61.3724,88.2949 65,85.5C 65.1972,74.8655 60.0306,71.3655 49.5,75C 44.0781,80.3171 44.2448,85.4838 50,90.5C 50.4955,92.4727 50.6621,94.4727 50.5,96.5C 41.5,96.5 32.5,96.5 23.5,96.5C 23.5,87.8333 23.5,79.1667 23.5,70.5C 28.0385,69.8724 31.7051,71.3724 34.5,75C 45.1345,75.1972 48.6345,70.0306 45,59.5C 39.6829,54.0781 34.5162,54.2448 29.5,60C 27.5273,60.4955 25.5273,60.6621 23.5,60.5C 23.5,51.8333 23.5,43.1667 23.5,34.5C 32.8333,34.5 42.1667,34.5 51.5,34.5C 52.2228,29.286 50.7228,24.9526 47,21.5C 46.2119,18.2281 46.7119,15.2281 48.5,12.5 Z"/></g>
</svg>
